<mxfile host="app.diagrams.net" modified="2024-07-11T14:30:38.081Z" agent="Mozilla/5.0 (Macintosh; Intel Mac OS X 10_15_7) AppleWebKit/537.36 (KHTML, like Gecko) Chrome/126.0.0.0 Safari/537.36" etag="ac8rrA3xi_83r1AimsgW" version="24.6.4" type="device" pages="2">
  <diagram name="페이지-1" id="ZmAH5vKbOn5uI-MtRxrK">
    <mxGraphModel dx="371" dy="375" grid="1" gridSize="10" guides="1" tooltips="1" connect="1" arrows="1" fold="1" page="1" pageScale="1" pageWidth="1169" pageHeight="827" math="0" shadow="0">
      <root>
        <mxCell id="0" />
        <mxCell id="1" parent="0" />
        <mxCell id="svY135tmnFeEmstSokKk-31" value="" style="rounded=0;whiteSpace=wrap;html=1;fillColor=#d5e8d4;strokeColor=#82b366;" vertex="1" parent="1">
          <mxGeometry x="440" y="190" width="200" height="100" as="geometry" />
        </mxCell>
        <mxCell id="svY135tmnFeEmstSokKk-30" value="" style="rounded=0;whiteSpace=wrap;html=1;fillColor=#d5e8d4;strokeColor=#82b366;" vertex="1" parent="1">
          <mxGeometry x="160" y="190" width="200" height="100" as="geometry" />
        </mxCell>
        <mxCell id="svY135tmnFeEmstSokKk-1" value="" style="rounded=0;whiteSpace=wrap;html=1;fillColor=#dae8fc;strokeColor=#6c8ebf;" vertex="1" parent="1">
          <mxGeometry x="210" y="200" width="30" height="80" as="geometry" />
        </mxCell>
        <mxCell id="svY135tmnFeEmstSokKk-2" value="" style="rounded=0;whiteSpace=wrap;html=1;fillColor=#dae8fc;strokeColor=#6c8ebf;" vertex="1" parent="1">
          <mxGeometry x="250" y="200" width="30" height="80" as="geometry" />
        </mxCell>
        <mxCell id="svY135tmnFeEmstSokKk-4" value="" style="rounded=0;whiteSpace=wrap;html=1;fillColor=#dae8fc;strokeColor=#6c8ebf;" vertex="1" parent="1">
          <mxGeometry x="290" y="200" width="30" height="80" as="geometry" />
        </mxCell>
        <mxCell id="svY135tmnFeEmstSokKk-5" value="" style="rounded=0;whiteSpace=wrap;html=1;fillColor=#dae8fc;strokeColor=#6c8ebf;" vertex="1" parent="1">
          <mxGeometry x="50" y="200" width="30" height="80" as="geometry" />
        </mxCell>
        <mxCell id="svY135tmnFeEmstSokKk-6" value="" style="endArrow=none;html=1;rounded=0;" edge="1" parent="1">
          <mxGeometry width="50" height="50" relative="1" as="geometry">
            <mxPoint x="160" y="190" as="sourcePoint" />
            <mxPoint x="360" y="190" as="targetPoint" />
          </mxGeometry>
        </mxCell>
        <mxCell id="svY135tmnFeEmstSokKk-7" value="" style="endArrow=none;html=1;rounded=0;" edge="1" parent="1">
          <mxGeometry width="50" height="50" relative="1" as="geometry">
            <mxPoint x="160" y="290" as="sourcePoint" />
            <mxPoint x="360" y="290" as="targetPoint" />
          </mxGeometry>
        </mxCell>
        <mxCell id="svY135tmnFeEmstSokKk-8" value="" style="rounded=0;whiteSpace=wrap;html=1;fillColor=#dae8fc;strokeColor=#6c8ebf;" vertex="1" parent="1">
          <mxGeometry x="330" y="200" width="30" height="80" as="geometry" />
        </mxCell>
        <mxCell id="svY135tmnFeEmstSokKk-12" value="" style="rounded=0;whiteSpace=wrap;html=1;fillColor=#dae8fc;strokeColor=#6c8ebf;" vertex="1" parent="1">
          <mxGeometry x="490" y="200" width="30" height="80" as="geometry" />
        </mxCell>
        <mxCell id="svY135tmnFeEmstSokKk-13" value="" style="rounded=0;whiteSpace=wrap;html=1;fillColor=#dae8fc;strokeColor=#6c8ebf;" vertex="1" parent="1">
          <mxGeometry x="530" y="200" width="30" height="80" as="geometry" />
        </mxCell>
        <mxCell id="svY135tmnFeEmstSokKk-14" value="" style="rounded=0;whiteSpace=wrap;html=1;fillColor=#dae8fc;strokeColor=#6c8ebf;" vertex="1" parent="1">
          <mxGeometry x="570" y="200" width="30" height="80" as="geometry" />
        </mxCell>
        <mxCell id="svY135tmnFeEmstSokKk-15" value="" style="endArrow=none;html=1;rounded=0;" edge="1" parent="1">
          <mxGeometry width="50" height="50" relative="1" as="geometry">
            <mxPoint x="440" y="190" as="sourcePoint" />
            <mxPoint x="640" y="190" as="targetPoint" />
          </mxGeometry>
        </mxCell>
        <mxCell id="svY135tmnFeEmstSokKk-16" value="" style="endArrow=none;html=1;rounded=0;" edge="1" parent="1">
          <mxGeometry width="50" height="50" relative="1" as="geometry">
            <mxPoint x="440" y="290" as="sourcePoint" />
            <mxPoint x="640" y="290" as="targetPoint" />
          </mxGeometry>
        </mxCell>
        <mxCell id="svY135tmnFeEmstSokKk-17" value="" style="rounded=0;whiteSpace=wrap;html=1;dashed=1;dashPattern=8 8;fillColor=none;" vertex="1" parent="1">
          <mxGeometry x="610" y="200" width="30" height="80" as="geometry" />
        </mxCell>
        <mxCell id="svY135tmnFeEmstSokKk-18" value="" style="rounded=0;whiteSpace=wrap;html=1;fillColor=#dae8fc;strokeColor=#6c8ebf;" vertex="1" parent="1">
          <mxGeometry x="730" y="200" width="30" height="80" as="geometry" />
        </mxCell>
        <mxCell id="svY135tmnFeEmstSokKk-20" value="" style="endArrow=classic;html=1;rounded=0;fillColor=#dae8fc;strokeColor=#6c8ebf;" edge="1" parent="1">
          <mxGeometry width="50" height="50" relative="1" as="geometry">
            <mxPoint x="80" y="240" as="sourcePoint" />
            <mxPoint x="160" y="240" as="targetPoint" />
          </mxGeometry>
        </mxCell>
        <mxCell id="svY135tmnFeEmstSokKk-21" value="" style="endArrow=classic;html=1;rounded=0;fillColor=#dae8fc;strokeColor=#6c8ebf;" edge="1" parent="1">
          <mxGeometry width="50" height="50" relative="1" as="geometry">
            <mxPoint x="650" y="239.38" as="sourcePoint" />
            <mxPoint x="730" y="239.38" as="targetPoint" />
          </mxGeometry>
        </mxCell>
        <mxCell id="svY135tmnFeEmstSokKk-23" value="Back" style="text;html=1;align=center;verticalAlign=middle;whiteSpace=wrap;rounded=0;" vertex="1" parent="1">
          <mxGeometry x="160" y="290" width="60" height="30" as="geometry" />
        </mxCell>
        <mxCell id="svY135tmnFeEmstSokKk-24" value="Front" style="text;html=1;align=center;verticalAlign=middle;whiteSpace=wrap;rounded=0;" vertex="1" parent="1">
          <mxGeometry x="300" y="290" width="60" height="30" as="geometry" />
        </mxCell>
        <mxCell id="svY135tmnFeEmstSokKk-25" value="add" style="text;html=1;align=center;verticalAlign=middle;whiteSpace=wrap;rounded=0;" vertex="1" parent="1">
          <mxGeometry x="160" y="160" width="40" height="30" as="geometry" />
        </mxCell>
        <mxCell id="svY135tmnFeEmstSokKk-26" value="Front" style="text;html=1;align=center;verticalAlign=middle;whiteSpace=wrap;rounded=0;" vertex="1" parent="1">
          <mxGeometry x="580" y="290" width="60" height="30" as="geometry" />
        </mxCell>
        <mxCell id="svY135tmnFeEmstSokKk-27" value="Back" style="text;html=1;align=center;verticalAlign=middle;whiteSpace=wrap;rounded=0;" vertex="1" parent="1">
          <mxGeometry x="440" y="290" width="60" height="30" as="geometry" />
        </mxCell>
        <mxCell id="svY135tmnFeEmstSokKk-28" value="" style="rounded=0;whiteSpace=wrap;html=1;fillColor=#dae8fc;strokeColor=#6c8ebf;" vertex="1" parent="1">
          <mxGeometry x="450" y="200" width="30" height="80" as="geometry" />
        </mxCell>
        <mxCell id="svY135tmnFeEmstSokKk-29" value="remove" style="text;html=1;align=center;verticalAlign=middle;whiteSpace=wrap;rounded=0;" vertex="1" parent="1">
          <mxGeometry x="440" y="160" width="40" height="30" as="geometry" />
        </mxCell>
      </root>
    </mxGraphModel>
  </diagram>
  <diagram id="fGTRKL3C52EGwT45Gg82" name="페이지-2">
    <mxGraphModel dx="2060" dy="1088" grid="1" gridSize="10" guides="1" tooltips="1" connect="1" arrows="1" fold="1" page="1" pageScale="1" pageWidth="1169" pageHeight="827" math="0" shadow="0">
      <root>
        <mxCell id="0" />
        <mxCell id="1" parent="0" />
        <mxCell id="pz399VTmmyxoHpV_s3oU-18" value="" style="group" vertex="1" connectable="0" parent="1">
          <mxGeometry x="320" y="40" width="215" height="215" as="geometry" />
        </mxCell>
        <mxCell id="pz399VTmmyxoHpV_s3oU-19" value="2" style="ellipse;whiteSpace=wrap;html=1;aspect=fixed;" vertex="1" parent="pz399VTmmyxoHpV_s3oU-18">
          <mxGeometry x="145" y="30" width="40" height="40" as="geometry" />
        </mxCell>
        <mxCell id="pz399VTmmyxoHpV_s3oU-20" value="4" style="ellipse;whiteSpace=wrap;html=1;aspect=fixed;" vertex="1" parent="pz399VTmmyxoHpV_s3oU-18">
          <mxGeometry x="145" y="150" width="40" height="40" as="geometry" />
        </mxCell>
        <mxCell id="pz399VTmmyxoHpV_s3oU-21" value="6" style="ellipse;whiteSpace=wrap;html=1;aspect=fixed;" vertex="1" parent="pz399VTmmyxoHpV_s3oU-18">
          <mxGeometry x="25" y="150" width="40" height="40" as="geometry" />
        </mxCell>
        <mxCell id="pz399VTmmyxoHpV_s3oU-22" value="8" style="ellipse;whiteSpace=wrap;html=1;aspect=fixed;" vertex="1" parent="pz399VTmmyxoHpV_s3oU-18">
          <mxGeometry x="25" y="40" width="40" height="40" as="geometry" />
        </mxCell>
        <mxCell id="pz399VTmmyxoHpV_s3oU-23" value="1" style="ellipse;whiteSpace=wrap;html=1;aspect=fixed;rotation=0;" vertex="1" parent="pz399VTmmyxoHpV_s3oU-18">
          <mxGeometry x="85" y="5" width="40" height="40" as="geometry" />
        </mxCell>
        <mxCell id="pz399VTmmyxoHpV_s3oU-24" value="3" style="ellipse;whiteSpace=wrap;html=1;aspect=fixed;rotation=0;fillColor=#f8cecc;strokeColor=#b85450;" vertex="1" parent="pz399VTmmyxoHpV_s3oU-18">
          <mxGeometry x="170" y="90" width="40" height="40" as="geometry" />
        </mxCell>
        <mxCell id="pz399VTmmyxoHpV_s3oU-25" value="5" style="ellipse;whiteSpace=wrap;html=1;aspect=fixed;rotation=0;" vertex="1" parent="pz399VTmmyxoHpV_s3oU-18">
          <mxGeometry x="85" y="175" width="40" height="40" as="geometry" />
        </mxCell>
        <mxCell id="pz399VTmmyxoHpV_s3oU-26" value="7" style="ellipse;whiteSpace=wrap;html=1;aspect=fixed;rotation=0;" vertex="1" parent="pz399VTmmyxoHpV_s3oU-18">
          <mxGeometry y="90" width="40" height="40" as="geometry" />
        </mxCell>
        <mxCell id="pz399VTmmyxoHpV_s3oU-27" value="" style="curved=1;endArrow=classic;html=1;rounded=0;exitX=1;exitY=0;exitDx=0;exitDy=0;entryX=0.5;entryY=0;entryDx=0;entryDy=0;" edge="1" parent="pz399VTmmyxoHpV_s3oU-18" source="pz399VTmmyxoHpV_s3oU-23" target="pz399VTmmyxoHpV_s3oU-19">
          <mxGeometry width="50" height="50" relative="1" as="geometry">
            <mxPoint x="175" y="30" as="sourcePoint" />
            <mxPoint x="225" y="-20" as="targetPoint" />
            <Array as="points">
              <mxPoint x="135" />
              <mxPoint x="165" y="10" />
            </Array>
          </mxGeometry>
        </mxCell>
        <mxCell id="pz399VTmmyxoHpV_s3oU-28" value="" style="curved=1;endArrow=classic;html=1;rounded=0;exitX=1;exitY=0.5;exitDx=0;exitDy=0;entryX=1;entryY=0;entryDx=0;entryDy=0;" edge="1" parent="pz399VTmmyxoHpV_s3oU-18" source="pz399VTmmyxoHpV_s3oU-19" target="pz399VTmmyxoHpV_s3oU-24">
          <mxGeometry width="50" height="50" relative="1" as="geometry">
            <mxPoint x="195" y="61" as="sourcePoint" />
            <mxPoint x="241" y="80" as="targetPoint" />
            <Array as="points">
              <mxPoint x="205" y="50" />
              <mxPoint x="215" y="70" />
            </Array>
          </mxGeometry>
        </mxCell>
        <mxCell id="pz399VTmmyxoHpV_s3oU-3" value="2" style="ellipse;whiteSpace=wrap;html=1;aspect=fixed;" vertex="1" parent="1">
          <mxGeometry x="185" y="70" width="40" height="40" as="geometry" />
        </mxCell>
        <mxCell id="pz399VTmmyxoHpV_s3oU-5" value="4" style="ellipse;whiteSpace=wrap;html=1;aspect=fixed;" vertex="1" parent="1">
          <mxGeometry x="185" y="190" width="40" height="40" as="geometry" />
        </mxCell>
        <mxCell id="pz399VTmmyxoHpV_s3oU-7" value="6" style="ellipse;whiteSpace=wrap;html=1;aspect=fixed;" vertex="1" parent="1">
          <mxGeometry x="65" y="190" width="40" height="40" as="geometry" />
        </mxCell>
        <mxCell id="pz399VTmmyxoHpV_s3oU-9" value="8" style="ellipse;whiteSpace=wrap;html=1;aspect=fixed;" vertex="1" parent="1">
          <mxGeometry x="65" y="80" width="40" height="40" as="geometry" />
        </mxCell>
        <mxCell id="pz399VTmmyxoHpV_s3oU-2" value="1" style="ellipse;whiteSpace=wrap;html=1;aspect=fixed;rotation=0;fillColor=#dae8fc;strokeColor=#6c8ebf;" vertex="1" parent="1">
          <mxGeometry x="125" y="45" width="40" height="40" as="geometry" />
        </mxCell>
        <mxCell id="pz399VTmmyxoHpV_s3oU-4" value="3" style="ellipse;whiteSpace=wrap;html=1;aspect=fixed;rotation=0;" vertex="1" parent="1">
          <mxGeometry x="210" y="130" width="40" height="40" as="geometry" />
        </mxCell>
        <mxCell id="pz399VTmmyxoHpV_s3oU-6" value="5" style="ellipse;whiteSpace=wrap;html=1;aspect=fixed;rotation=0;" vertex="1" parent="1">
          <mxGeometry x="125" y="215" width="40" height="40" as="geometry" />
        </mxCell>
        <mxCell id="pz399VTmmyxoHpV_s3oU-8" value="7" style="ellipse;whiteSpace=wrap;html=1;aspect=fixed;rotation=0;" vertex="1" parent="1">
          <mxGeometry x="40" y="130" width="40" height="40" as="geometry" />
        </mxCell>
        <mxCell id="pz399VTmmyxoHpV_s3oU-29" value="" style="group" vertex="1" connectable="0" parent="1">
          <mxGeometry x="600" y="40" width="215" height="215" as="geometry" />
        </mxCell>
        <mxCell id="pz399VTmmyxoHpV_s3oU-30" value="2" style="ellipse;whiteSpace=wrap;html=1;aspect=fixed;" vertex="1" parent="pz399VTmmyxoHpV_s3oU-29">
          <mxGeometry x="145" y="30" width="40" height="40" as="geometry" />
        </mxCell>
        <mxCell id="pz399VTmmyxoHpV_s3oU-31" value="4" style="ellipse;whiteSpace=wrap;html=1;aspect=fixed;" vertex="1" parent="pz399VTmmyxoHpV_s3oU-29">
          <mxGeometry x="145" y="150" width="40" height="40" as="geometry" />
        </mxCell>
        <mxCell id="pz399VTmmyxoHpV_s3oU-32" value="6" style="ellipse;whiteSpace=wrap;html=1;aspect=fixed;fillColor=#f8cecc;strokeColor=#b85450;" vertex="1" parent="pz399VTmmyxoHpV_s3oU-29">
          <mxGeometry x="25" y="150" width="40" height="40" as="geometry" />
        </mxCell>
        <mxCell id="pz399VTmmyxoHpV_s3oU-33" value="8" style="ellipse;whiteSpace=wrap;html=1;aspect=fixed;" vertex="1" parent="pz399VTmmyxoHpV_s3oU-29">
          <mxGeometry x="25" y="40" width="40" height="40" as="geometry" />
        </mxCell>
        <mxCell id="pz399VTmmyxoHpV_s3oU-34" value="1" style="ellipse;whiteSpace=wrap;html=1;aspect=fixed;rotation=0;" vertex="1" parent="pz399VTmmyxoHpV_s3oU-29">
          <mxGeometry x="85" y="5" width="40" height="40" as="geometry" />
        </mxCell>
        <mxCell id="pz399VTmmyxoHpV_s3oU-36" value="5" style="ellipse;whiteSpace=wrap;html=1;aspect=fixed;rotation=0;" vertex="1" parent="pz399VTmmyxoHpV_s3oU-29">
          <mxGeometry x="85" y="175" width="40" height="40" as="geometry" />
        </mxCell>
        <mxCell id="pz399VTmmyxoHpV_s3oU-37" value="7" style="ellipse;whiteSpace=wrap;html=1;aspect=fixed;rotation=0;" vertex="1" parent="pz399VTmmyxoHpV_s3oU-29">
          <mxGeometry y="90" width="40" height="40" as="geometry" />
        </mxCell>
        <mxCell id="pz399VTmmyxoHpV_s3oU-38" value="" style="curved=1;endArrow=classic;html=1;rounded=0;exitX=0.5;exitY=1;exitDx=0;exitDy=0;entryX=1;entryY=1;entryDx=0;entryDy=0;" edge="1" parent="pz399VTmmyxoHpV_s3oU-29" source="pz399VTmmyxoHpV_s3oU-31" target="pz399VTmmyxoHpV_s3oU-36">
          <mxGeometry width="50" height="50" relative="1" as="geometry">
            <mxPoint x="175" y="30" as="sourcePoint" />
            <mxPoint x="225" y="-20" as="targetPoint" />
            <Array as="points">
              <mxPoint x="170" y="210" />
              <mxPoint x="130" y="220" />
            </Array>
          </mxGeometry>
        </mxCell>
        <mxCell id="pz399VTmmyxoHpV_s3oU-39" value="" style="curved=1;endArrow=classic;html=1;rounded=0;exitX=0;exitY=1;exitDx=0;exitDy=0;entryX=0.5;entryY=1;entryDx=0;entryDy=0;" edge="1" parent="pz399VTmmyxoHpV_s3oU-29" source="pz399VTmmyxoHpV_s3oU-36" target="pz399VTmmyxoHpV_s3oU-32">
          <mxGeometry width="50" height="50" relative="1" as="geometry">
            <mxPoint x="195" y="61" as="sourcePoint" />
            <mxPoint x="241" y="80" as="targetPoint" />
            <Array as="points">
              <mxPoint x="70" y="220" />
              <mxPoint x="50" y="210" />
            </Array>
          </mxGeometry>
        </mxCell>
        <mxCell id="pz399VTmmyxoHpV_s3oU-40" value="" style="group" vertex="1" connectable="0" parent="1">
          <mxGeometry x="880" y="40" width="215" height="215" as="geometry" />
        </mxCell>
        <mxCell id="pz399VTmmyxoHpV_s3oU-41" value="2" style="ellipse;whiteSpace=wrap;html=1;aspect=fixed;" vertex="1" parent="pz399VTmmyxoHpV_s3oU-40">
          <mxGeometry x="145" y="30" width="40" height="40" as="geometry" />
        </mxCell>
        <mxCell id="pz399VTmmyxoHpV_s3oU-42" value="4" style="ellipse;whiteSpace=wrap;html=1;aspect=fixed;" vertex="1" parent="pz399VTmmyxoHpV_s3oU-40">
          <mxGeometry x="145" y="150" width="40" height="40" as="geometry" />
        </mxCell>
        <mxCell id="pz399VTmmyxoHpV_s3oU-44" value="8" style="ellipse;whiteSpace=wrap;html=1;aspect=fixed;" vertex="1" parent="pz399VTmmyxoHpV_s3oU-40">
          <mxGeometry x="25" y="40" width="40" height="40" as="geometry" />
        </mxCell>
        <mxCell id="pz399VTmmyxoHpV_s3oU-45" value="1" style="ellipse;whiteSpace=wrap;html=1;aspect=fixed;rotation=0;fillColor=#f8cecc;strokeColor=#b85450;" vertex="1" parent="pz399VTmmyxoHpV_s3oU-40">
          <mxGeometry x="85" y="5" width="40" height="40" as="geometry" />
        </mxCell>
        <mxCell id="pz399VTmmyxoHpV_s3oU-47" value="5" style="ellipse;whiteSpace=wrap;html=1;aspect=fixed;rotation=0;" vertex="1" parent="pz399VTmmyxoHpV_s3oU-40">
          <mxGeometry x="85" y="175" width="40" height="40" as="geometry" />
        </mxCell>
        <mxCell id="pz399VTmmyxoHpV_s3oU-48" value="7" style="ellipse;whiteSpace=wrap;html=1;aspect=fixed;rotation=0;" vertex="1" parent="pz399VTmmyxoHpV_s3oU-40">
          <mxGeometry y="90" width="40" height="40" as="geometry" />
        </mxCell>
        <mxCell id="pz399VTmmyxoHpV_s3oU-49" value="" style="curved=1;endArrow=classic;html=1;rounded=0;exitX=0;exitY=0;exitDx=0;exitDy=0;entryX=0;entryY=0.5;entryDx=0;entryDy=0;" edge="1" parent="pz399VTmmyxoHpV_s3oU-40" source="pz399VTmmyxoHpV_s3oU-48" target="pz399VTmmyxoHpV_s3oU-44">
          <mxGeometry width="50" height="50" relative="1" as="geometry">
            <mxPoint x="175" y="30" as="sourcePoint" />
            <mxPoint x="225" y="-20" as="targetPoint" />
            <Array as="points">
              <mxPoint y="80" />
              <mxPoint x="10" y="60" />
            </Array>
          </mxGeometry>
        </mxCell>
        <mxCell id="pz399VTmmyxoHpV_s3oU-50" value="" style="curved=1;endArrow=classic;html=1;rounded=0;exitX=0.5;exitY=0;exitDx=0;exitDy=0;entryX=0;entryY=0;entryDx=0;entryDy=0;" edge="1" parent="pz399VTmmyxoHpV_s3oU-40" source="pz399VTmmyxoHpV_s3oU-44" target="pz399VTmmyxoHpV_s3oU-45">
          <mxGeometry width="50" height="50" relative="1" as="geometry">
            <mxPoint x="195" y="61" as="sourcePoint" />
            <mxPoint x="241" y="80" as="targetPoint" />
            <Array as="points">
              <mxPoint x="50" y="20" />
              <mxPoint x="70" y="10" />
            </Array>
          </mxGeometry>
        </mxCell>
        <mxCell id="pz399VTmmyxoHpV_s3oU-51" value="" style="group" vertex="1" connectable="0" parent="1">
          <mxGeometry x="880" y="320" width="215" height="215" as="geometry" />
        </mxCell>
        <mxCell id="pz399VTmmyxoHpV_s3oU-52" value="2" style="ellipse;whiteSpace=wrap;html=1;aspect=fixed;" vertex="1" parent="pz399VTmmyxoHpV_s3oU-51">
          <mxGeometry x="145" y="30" width="40" height="40" as="geometry" />
        </mxCell>
        <mxCell id="pz399VTmmyxoHpV_s3oU-53" value="4" style="ellipse;whiteSpace=wrap;html=1;aspect=fixed;" vertex="1" parent="pz399VTmmyxoHpV_s3oU-51">
          <mxGeometry x="145" y="150" width="40" height="40" as="geometry" />
        </mxCell>
        <mxCell id="pz399VTmmyxoHpV_s3oU-54" value="8" style="ellipse;whiteSpace=wrap;html=1;aspect=fixed;" vertex="1" parent="pz399VTmmyxoHpV_s3oU-51">
          <mxGeometry x="25" y="40" width="40" height="40" as="geometry" />
        </mxCell>
        <mxCell id="pz399VTmmyxoHpV_s3oU-56" value="5" style="ellipse;whiteSpace=wrap;html=1;aspect=fixed;rotation=0;fillColor=#f8cecc;strokeColor=#b85450;" vertex="1" parent="pz399VTmmyxoHpV_s3oU-51">
          <mxGeometry x="85" y="175" width="40" height="40" as="geometry" />
        </mxCell>
        <mxCell id="pz399VTmmyxoHpV_s3oU-57" value="7" style="ellipse;whiteSpace=wrap;html=1;aspect=fixed;rotation=0;" vertex="1" parent="pz399VTmmyxoHpV_s3oU-51">
          <mxGeometry y="90" width="40" height="40" as="geometry" />
        </mxCell>
        <mxCell id="pz399VTmmyxoHpV_s3oU-58" value="" style="curved=1;endArrow=classic;html=1;rounded=0;exitX=1;exitY=1;exitDx=0;exitDy=0;entryX=1;entryY=0.5;entryDx=0;entryDy=0;" edge="1" parent="pz399VTmmyxoHpV_s3oU-51" source="pz399VTmmyxoHpV_s3oU-52" target="pz399VTmmyxoHpV_s3oU-53">
          <mxGeometry width="50" height="50" relative="1" as="geometry">
            <mxPoint x="175" y="30" as="sourcePoint" />
            <mxPoint x="225" y="-20" as="targetPoint" />
            <Array as="points">
              <mxPoint x="210" y="80" />
              <mxPoint x="210" y="150" />
            </Array>
          </mxGeometry>
        </mxCell>
        <mxCell id="pz399VTmmyxoHpV_s3oU-60" value="" style="curved=1;endArrow=classic;html=1;rounded=0;exitX=0.5;exitY=1;exitDx=0;exitDy=0;entryX=1;entryY=1;entryDx=0;entryDy=0;" edge="1" parent="pz399VTmmyxoHpV_s3oU-51">
          <mxGeometry width="50" height="50" relative="1" as="geometry">
            <mxPoint x="166" y="190" as="sourcePoint" />
            <mxPoint x="120" y="209" as="targetPoint" />
            <Array as="points">
              <mxPoint x="171" y="210" />
              <mxPoint x="131" y="220" />
            </Array>
          </mxGeometry>
        </mxCell>
        <mxCell id="pz399VTmmyxoHpV_s3oU-61" value="" style="group" vertex="1" connectable="0" parent="1">
          <mxGeometry x="600" y="320" width="215" height="215" as="geometry" />
        </mxCell>
        <mxCell id="pz399VTmmyxoHpV_s3oU-62" value="2" style="ellipse;whiteSpace=wrap;html=1;aspect=fixed;fillColor=#f8cecc;strokeColor=#b85450;" vertex="1" parent="pz399VTmmyxoHpV_s3oU-61">
          <mxGeometry x="145" y="30" width="40" height="40" as="geometry" />
        </mxCell>
        <mxCell id="pz399VTmmyxoHpV_s3oU-63" value="4" style="ellipse;whiteSpace=wrap;html=1;aspect=fixed;" vertex="1" parent="pz399VTmmyxoHpV_s3oU-61">
          <mxGeometry x="145" y="150" width="40" height="40" as="geometry" />
        </mxCell>
        <mxCell id="pz399VTmmyxoHpV_s3oU-64" value="8" style="ellipse;whiteSpace=wrap;html=1;aspect=fixed;" vertex="1" parent="pz399VTmmyxoHpV_s3oU-61">
          <mxGeometry x="25" y="40" width="40" height="40" as="geometry" />
        </mxCell>
        <mxCell id="pz399VTmmyxoHpV_s3oU-66" value="7" style="ellipse;whiteSpace=wrap;html=1;aspect=fixed;rotation=0;" vertex="1" parent="pz399VTmmyxoHpV_s3oU-61">
          <mxGeometry y="90" width="40" height="40" as="geometry" />
        </mxCell>
        <mxCell id="pz399VTmmyxoHpV_s3oU-67" value="" style="curved=1;endArrow=classic;html=1;rounded=0;exitX=1;exitY=0;exitDx=0;exitDy=0;entryX=0;entryY=0;entryDx=0;entryDy=0;" edge="1" parent="pz399VTmmyxoHpV_s3oU-61" source="pz399VTmmyxoHpV_s3oU-64" target="pz399VTmmyxoHpV_s3oU-62">
          <mxGeometry width="50" height="50" relative="1" as="geometry">
            <mxPoint x="175" y="30" as="sourcePoint" />
            <mxPoint x="225" y="-20" as="targetPoint" />
            <Array as="points">
              <mxPoint x="70" y="30" />
              <mxPoint x="110" y="20" />
            </Array>
          </mxGeometry>
        </mxCell>
        <mxCell id="pz399VTmmyxoHpV_s3oU-70" value="" style="curved=1;endArrow=classic;html=1;rounded=0;exitX=0;exitY=0;exitDx=0;exitDy=0;entryX=0;entryY=0.5;entryDx=0;entryDy=0;" edge="1" parent="pz399VTmmyxoHpV_s3oU-61" source="pz399VTmmyxoHpV_s3oU-66" target="pz399VTmmyxoHpV_s3oU-64">
          <mxGeometry width="50" height="50" relative="1" as="geometry">
            <mxPoint x="296" y="-174" as="sourcePoint" />
            <mxPoint x="315" y="-210" as="targetPoint" />
            <Array as="points">
              <mxPoint x="-10" y="70" />
            </Array>
          </mxGeometry>
        </mxCell>
        <mxCell id="pz399VTmmyxoHpV_s3oU-72" value="" style="group" vertex="1" connectable="0" parent="1">
          <mxGeometry x="320" y="320" width="215" height="215" as="geometry" />
        </mxCell>
        <mxCell id="pz399VTmmyxoHpV_s3oU-74" value="4" style="ellipse;whiteSpace=wrap;html=1;aspect=fixed;" vertex="1" parent="pz399VTmmyxoHpV_s3oU-72">
          <mxGeometry x="145" y="150" width="40" height="40" as="geometry" />
        </mxCell>
        <mxCell id="pz399VTmmyxoHpV_s3oU-75" value="8" style="ellipse;whiteSpace=wrap;html=1;aspect=fixed;fillColor=#f8cecc;strokeColor=#b85450;" vertex="1" parent="pz399VTmmyxoHpV_s3oU-72">
          <mxGeometry x="25" y="40" width="40" height="40" as="geometry" />
        </mxCell>
        <mxCell id="pz399VTmmyxoHpV_s3oU-76" value="7" style="ellipse;whiteSpace=wrap;html=1;aspect=fixed;rotation=0;" vertex="1" parent="pz399VTmmyxoHpV_s3oU-72">
          <mxGeometry y="90" width="40" height="40" as="geometry" />
        </mxCell>
        <mxCell id="pz399VTmmyxoHpV_s3oU-77" value="" style="curved=1;endArrow=classic;html=1;rounded=0;exitX=0;exitY=1;exitDx=0;exitDy=0;entryX=0.5;entryY=1;entryDx=0;entryDy=0;" edge="1" parent="pz399VTmmyxoHpV_s3oU-72" source="pz399VTmmyxoHpV_s3oU-74" target="pz399VTmmyxoHpV_s3oU-76">
          <mxGeometry width="50" height="50" relative="1" as="geometry">
            <mxPoint x="175" y="30" as="sourcePoint" />
            <mxPoint x="225" y="-20" as="targetPoint" />
            <Array as="points">
              <mxPoint x="110" y="200" />
              <mxPoint x="40" y="184" />
            </Array>
          </mxGeometry>
        </mxCell>
        <mxCell id="pz399VTmmyxoHpV_s3oU-78" value="" style="curved=1;endArrow=classic;html=1;rounded=0;exitX=0;exitY=0;exitDx=0;exitDy=0;entryX=0;entryY=0.5;entryDx=0;entryDy=0;" edge="1" parent="pz399VTmmyxoHpV_s3oU-72" source="pz399VTmmyxoHpV_s3oU-76" target="pz399VTmmyxoHpV_s3oU-75">
          <mxGeometry width="50" height="50" relative="1" as="geometry">
            <mxPoint x="296" y="-174" as="sourcePoint" />
            <mxPoint x="315" y="-210" as="targetPoint" />
            <Array as="points">
              <mxPoint x="-10" y="70" />
            </Array>
          </mxGeometry>
        </mxCell>
        <mxCell id="pz399VTmmyxoHpV_s3oU-79" value="" style="group" vertex="1" connectable="0" parent="1">
          <mxGeometry x="40" y="320" width="215" height="215" as="geometry" />
        </mxCell>
        <mxCell id="pz399VTmmyxoHpV_s3oU-80" value="4" style="ellipse;whiteSpace=wrap;html=1;aspect=fixed;fillColor=#f8cecc;strokeColor=#b85450;" vertex="1" parent="pz399VTmmyxoHpV_s3oU-79">
          <mxGeometry x="145" y="150" width="40" height="40" as="geometry" />
        </mxCell>
        <mxCell id="pz399VTmmyxoHpV_s3oU-82" value="7" style="ellipse;whiteSpace=wrap;html=1;aspect=fixed;rotation=0;" vertex="1" parent="pz399VTmmyxoHpV_s3oU-79">
          <mxGeometry y="90" width="40" height="40" as="geometry" />
        </mxCell>
        <mxCell id="pz399VTmmyxoHpV_s3oU-83" value="" style="curved=1;endArrow=classic;html=1;rounded=0;exitX=0;exitY=1;exitDx=0;exitDy=0;entryX=0.5;entryY=1;entryDx=0;entryDy=0;" edge="1" parent="pz399VTmmyxoHpV_s3oU-79" source="pz399VTmmyxoHpV_s3oU-80" target="pz399VTmmyxoHpV_s3oU-82">
          <mxGeometry width="50" height="50" relative="1" as="geometry">
            <mxPoint x="175" y="30" as="sourcePoint" />
            <mxPoint x="225" y="-20" as="targetPoint" />
            <Array as="points">
              <mxPoint x="100" y="190" />
              <mxPoint x="40" y="170" />
            </Array>
          </mxGeometry>
        </mxCell>
        <mxCell id="pz399VTmmyxoHpV_s3oU-84" value="" style="curved=1;endArrow=classic;html=1;rounded=0;exitX=1;exitY=0;exitDx=0;exitDy=0;entryX=0.5;entryY=0;entryDx=0;entryDy=0;" edge="1" parent="pz399VTmmyxoHpV_s3oU-79" source="pz399VTmmyxoHpV_s3oU-82" target="pz399VTmmyxoHpV_s3oU-80">
          <mxGeometry width="50" height="50" relative="1" as="geometry">
            <mxPoint x="296" y="-174" as="sourcePoint" />
            <mxPoint x="145.0000000000066" y="90" as="targetPoint" />
            <Array as="points">
              <mxPoint x="110" y="80" />
            </Array>
          </mxGeometry>
        </mxCell>
      </root>
    </mxGraphModel>
  </diagram>
</mxfile>
